<?xml version="1.0" encoding="UTF-8"?><svg id="Capa_1" xmlns="http://www.w3.org/2000/svg" viewBox="0 0 968.39 105.45"><defs><style>.cls-1{fill:#dd1416;}.cls-2{fill:#fff;}</style></defs><path class="cls-2" d="M26.04,82.21c-5,0-9.46-.64-13.38-1.93s-7.01-3.16-9.27-5.63c-2.26-2.46-3.39-5.46-3.39-8.98,0-4.05,1.41-7.33,4.24-9.85,2.83-2.52,6.5-4.44,11.03-5.76,4.52-1.32,9.31-2.17,14.36-2.56,7.31-.56,12.3-1.07,14.98-1.51,2.68-.44,4.01-1.21,4.01-2.3v-.11c0-1.69-1.1-3.06-3.3-4.12-2.2-1.06-5.21-1.58-9.04-1.58-4.05,0-7.1.59-9.17,1.77-2.07,1.18-3.1,2.97-3.1,5.36H1.04c0-4.61,1.58-8.5,4.73-11.65,3.15-3.15,7.41-5.54,12.76-7.16,5.35-1.62,11.33-2.43,17.95-2.43,6.27,0,12.08.76,17.46,2.27,5.37,1.51,9.73,3.82,13.05,6.92,3.33,3.1,4.99,7.04,4.99,11.83v23.03c0,1.48.04,2.92.13,4.31.09,1.39.33,2.67.72,3.83.48,1.27,1.08,2.34,1.79,3.22.72.88,1.29,1.48,1.73,1.8h-22.78c-.35-.28-.86-.83-1.53-1.64-.67-.81-1.25-1.74-1.73-2.8-.57-1.41-.98-2.77-1.24-4.09-.26-1.32-.39-2.9-.39-4.73l4.96,2.75c-1.22,2.43-3.21,4.53-5.97,6.29-2.76,1.76-6.02,3.11-9.76,4.04-3.74.93-7.7,1.4-11.88,1.4ZM32.7,68.52c2.7,0,5.29-.44,7.77-1.32,2.48-.88,4.52-2.29,6.14-4.23,1.61-1.94,2.42-4.53,2.42-7.77v-3.86l5.87,4.23c-2.87.81-6.14,1.49-9.79,2.03-3.65.55-7.22.96-10.7,1.24-3.7.32-6.46.83-8.29,1.53-1.83.71-2.74,1.87-2.74,3.49s.79,2.71,2.38,3.49c1.59.78,3.9,1.16,6.95,1.16Z"/><path class="cls-2" d="M72.51,80.99V24.88h23.3v20.08l-4.37-2.54c.61-2.78,1.57-5.33,2.87-7.63,1.31-2.31,2.99-4.28,5.06-5.92,2.07-1.64,4.48-2.9,7.25-3.78,2.76-.88,5.88-1.32,9.37-1.32,2.83,0,4.99.16,6.49.48,1.5.32,2.45.56,2.84.74l-3.46,16.64c-.39-.18-1.26-.45-2.61-.82-1.35-.37-3.02-.55-5.03-.55-3.44,0-6.34.45-8.71,1.35-2.37.9-4.26,2.1-5.68,3.62-1.41,1.52-2.44,3.21-3.07,5.07-.63,1.87-.95,3.73-.95,5.6v25.09h-23.3Z"/><path class="cls-2" d="M158.27,82.26c-2.83,0-5.79-.18-8.88-.55-3.09-.37-5.96-1.12-8.62-2.25-2.65-1.13-4.81-2.82-6.46-5.07-1.65-2.25-2.48-5.25-2.48-8.98v-26.26h-15.73v-14.26h2.42c3,0,5.4-.11,7.18-.32,1.78-.21,3.11-.74,3.98-1.58.87-.84,1.45-2.16,1.73-3.94.28-1.78.42-4.25.42-7.42v-5.18h23.37v18.44h19.58v14.26h-19.58v21.19c0,2.22.33,4.07.98,5.55.65,1.48,2.35,2.22,5.09,2.22,1.52,0,2.96-.12,4.31-.37,1.35-.25,2.35-.48,3-.69v13.84c-.96.32-2.33.62-4.11.92-1.78.3-3.85.45-6.2.45Z"/><path class="cls-2" d="M180.99,58.33v-11.78h43.4l-1.96,2.75v-1.69c0-1.58-.5-3.16-1.5-4.73-1-1.57-2.59-2.87-4.76-3.91-2.18-1.04-5.03-1.56-8.55-1.56s-6.43.59-8.84,1.77c-2.42,1.18-4.24,2.91-5.48,5.18-1.24,2.27-1.86,5.01-1.86,8.21s.6,6.21,1.79,8.59c1.2,2.38,3.03,4.19,5.52,5.44,2.48,1.25,5.66,1.88,9.53,1.88,2.39,0,4.45-.16,6.17-.48,1.72-.32,3.11-.73,4.18-1.24,1.07-.51,1.87-1.07,2.42-1.69.54-.62.88-1.22,1.01-1.82h22.98c-.26,2.43-1.31,4.78-3.13,7.05-1.83,2.27-4.34,4.31-7.54,6.13-3.2,1.81-7.07,3.25-11.62,4.31-4.55,1.06-9.69,1.58-15.44,1.58-7.88,0-14.73-1.24-20.56-3.72-5.83-2.48-10.34-5.92-13.54-10.33-3.2-4.4-4.8-9.47-4.8-15.22s1.63-10.96,4.9-15.35c3.26-4.38,7.82-7.8,13.67-10.25,5.85-2.45,12.63-3.67,20.33-3.67s14.84,1.24,20.62,3.72c5.79,2.48,10.25,5.98,13.38,10.49,3.13,4.51,4.7,9.81,4.7,15.9,0,.95-.02,1.81-.07,2.59-.04.77-.11,1.39-.2,1.85h-64.75Z"/><path class="cls-1" d="M270.47,105.45c-2.35,0-4.42-.06-6.2-.18-1.78-.12-2.92-.26-3.39-.4v-13.89c.56.21,1.58.37,3.04.48,1.46.11,3.01.16,4.67.16,1.96,0,3.75-.31,5.38-.92s3.06-1.48,4.27-2.59c1.22-1.11,2.15-2.46,2.81-4.04l.91-2.17-23.89-57.01h24.28l13.64,45.28h-2.61l13.12-45.28h23.89l-23.24,58.22c-1.96,4.79-4.34,8.85-7.15,12.18s-6.54,5.86-11.19,7.58c-4.66,1.73-10.77,2.59-18.34,2.59Z"/><path class="cls-2" d="M345.2,80.99V24.88h23.3v20.08l-4.37-2.54c.61-2.78,1.57-5.33,2.87-7.63,1.31-2.31,2.99-4.28,5.06-5.92,2.07-1.64,4.48-2.9,7.25-3.78,2.76-.88,5.88-1.32,9.37-1.32,2.83,0,4.99.16,6.49.48,1.5.32,2.45.56,2.84.74l-3.46,16.64c-.39-.18-1.26-.45-2.61-.82-1.35-.37-3.02-.55-5.03-.55-3.44,0-6.34.45-8.71,1.35-2.37.9-4.26,2.1-5.68,3.62-1.41,1.52-2.44,3.21-3.07,5.07-.63,1.87-.95,3.73-.95,5.6v25.09h-23.3Z"/><path class="cls-2" d="M402.51,58.33v-11.78h43.4l-1.96,2.75v-1.69c0-1.58-.5-3.16-1.5-4.73-1-1.57-2.59-2.87-4.76-3.91-2.18-1.04-5.03-1.56-8.55-1.56s-6.43.59-8.84,1.77c-2.42,1.18-4.24,2.91-5.48,5.18-1.24,2.27-1.86,5.01-1.86,8.21s.6,6.21,1.79,8.59c1.2,2.38,3.03,4.19,5.52,5.44,2.48,1.25,5.66,1.88,9.53,1.88,2.39,0,4.45-.16,6.17-.48,1.72-.32,3.11-.73,4.18-1.24,1.07-.51,1.87-1.07,2.42-1.69.54-.62.88-1.22,1.01-1.82h22.98c-.26,2.43-1.31,4.78-3.13,7.05-1.83,2.27-4.34,4.31-7.54,6.13-3.2,1.81-7.07,3.25-11.62,4.31-4.55,1.06-9.69,1.58-15.44,1.58-7.88,0-14.73-1.24-20.56-3.72-5.83-2.48-10.34-5.92-13.54-10.33-3.2-4.4-4.8-9.47-4.8-15.22s1.63-10.96,4.9-15.35c3.26-4.38,7.82-7.8,13.67-10.25,5.85-2.45,12.63-3.67,20.33-3.67s14.84,1.24,20.62,3.72c5.79,2.48,10.25,5.98,13.38,10.49,3.13,4.51,4.7,9.81,4.7,15.9,0,.95-.02,1.81-.07,2.59-.04.77-.11,1.39-.2,1.85h-64.75Z"/><path class="cls-2" d="M495.06,82.31c-4.13,0-8.15-.39-12.04-1.16-3.89-.77-7.42-1.95-10.57-3.51-3.16-1.57-5.68-3.53-7.57-5.89-1.89-2.36-2.84-5.11-2.84-8.24v-.74h23.1v.63c0,1.76.95,3.03,2.84,3.8,1.89.78,4.47,1.16,7.73,1.16,1.48,0,2.99-.13,4.54-.4,1.54-.26,2.85-.7,3.92-1.32,1.06-.62,1.6-1.4,1.6-2.35,0-1.51-1.12-2.59-3.36-3.22-2.24-.63-6.02-1.3-11.32-2.01-3.05-.39-6.21-.97-9.5-1.74-3.29-.77-6.34-1.81-9.17-3.12-2.83-1.3-5.11-2.96-6.85-4.97-1.74-2.01-2.61-4.47-2.61-7.4,0-3.98,1.48-7.3,4.44-9.96,2.96-2.66,6.89-4.68,11.78-6.05,4.9-1.37,10.28-2.06,16.15-2.06,5.57,0,10.78.76,15.63,2.27,4.85,1.51,8.79,3.68,11.81,6.5,3.02,2.82,4.54,6.16,4.54,10.04v.63h-22.84v-.58c0-1.2-.47-2.17-1.4-2.91-.94-.74-2.11-1.29-3.53-1.64-1.41-.35-2.86-.53-4.34-.53-1.26,0-2.63.11-4.11.34-1.48.23-2.74.62-3.79,1.16-1.04.55-1.57,1.35-1.57,2.4,0,.92.61,1.69,1.83,2.33,1.22.63,2.89,1.15,5.03,1.56,2.13.41,4.57.78,7.31,1.14,2.7.32,5.68.81,8.94,1.48s6.37,1.63,9.33,2.88c2.96,1.25,5.38,2.92,7.28,4.99,1.89,2.08,2.84,4.72,2.84,7.92,0,3.38-.96,6.25-2.87,8.61s-4.49,4.27-7.73,5.73-6.82,2.53-10.74,3.2c-3.92.67-7.88,1-11.88,1Z"/><path class="cls-2" d="M536.5,17.01c-3.48,0-6.54-.74-9.17-2.22-2.63-1.48-3.95-3.57-3.95-6.29s1.32-4.85,3.95-6.31c2.63-1.46,5.69-2.19,9.17-2.19s6.59.73,9.2,2.19c2.61,1.46,3.92,3.57,3.92,6.31s-1.31,4.85-3.92,6.31c-2.61,1.46-5.68,2.19-9.2,2.19ZM525.02,80.99V24.88h23.04v56.11h-23.04Z"/><path class="cls-2" d="M577.69,82.31c-4.13,0-8.15-.39-12.04-1.16-3.89-.77-7.42-1.95-10.57-3.51-3.16-1.57-5.68-3.53-7.57-5.89s-2.84-5.11-2.84-8.24v-.74h23.11v.63c0,1.76.95,3.03,2.84,3.8,1.89.78,4.47,1.16,7.73,1.16,1.48,0,2.99-.13,4.54-.4,1.54-.26,2.85-.7,3.92-1.32,1.07-.62,1.6-1.4,1.6-2.35,0-1.51-1.12-2.59-3.36-3.22-2.24-.63-6.02-1.3-11.32-2.01-3.05-.39-6.21-.97-9.5-1.74-3.29-.77-6.34-1.81-9.17-3.12-2.83-1.3-5.11-2.96-6.85-4.97-1.74-2.01-2.61-4.47-2.61-7.4,0-3.98,1.48-7.3,4.44-9.96,2.96-2.66,6.89-4.68,11.78-6.05,4.89-1.37,10.28-2.06,16.15-2.06,5.57,0,10.78.76,15.63,2.27,4.85,1.51,8.79,3.68,11.81,6.5,3.02,2.82,4.54,6.16,4.54,10.04v.63h-22.84v-.58c0-1.2-.47-2.17-1.4-2.91-.94-.74-2.11-1.29-3.53-1.64-1.41-.35-2.86-.53-4.34-.53-1.26,0-2.63.11-4.11.34s-2.74.62-3.79,1.16c-1.04.55-1.57,1.35-1.57,2.4,0,.92.61,1.69,1.83,2.33,1.22.63,2.89,1.15,5.03,1.56s4.57.78,7.31,1.14c2.7.32,5.68.81,8.94,1.48,3.26.67,6.37,1.63,9.33,2.88,2.96,1.25,5.38,2.92,7.28,4.99,1.89,2.08,2.84,4.72,2.84,7.92,0,3.38-.96,6.25-2.87,8.61-1.92,2.36-4.49,4.27-7.73,5.73-3.24,1.46-6.82,2.53-10.74,3.2-3.92.67-7.88,1-11.88,1Z"/><path class="cls-2" d="M644.98,82.26c-2.83,0-5.79-.18-8.88-.55-3.09-.37-5.96-1.12-8.62-2.25-2.65-1.13-4.81-2.82-6.46-5.07-1.65-2.25-2.48-5.25-2.48-8.98v-26.26h-15.73v-14.26h2.41c3,0,5.4-.11,7.18-.32,1.78-.21,3.11-.74,3.98-1.58.87-.84,1.45-2.16,1.73-3.94.28-1.78.42-4.25.42-7.42v-5.18h23.37v18.44h19.58v14.26h-19.58v21.19c0,2.22.33,4.07.98,5.55.65,1.48,2.35,2.22,5.09,2.22,1.52,0,2.96-.12,4.31-.37,1.35-.25,2.35-.48,3-.69v13.84c-.96.32-2.33.62-4.11.92-1.79.3-3.85.45-6.2.45Z"/><path class="cls-2" d="M667.7,58.33v-11.78h43.4l-1.96,2.75v-1.69c0-1.58-.5-3.16-1.5-4.73-1-1.57-2.59-2.87-4.76-3.91s-5.03-1.56-8.55-1.56-6.43.59-8.84,1.77c-2.42,1.18-4.24,2.91-5.48,5.18-1.24,2.27-1.86,5.01-1.86,8.21s.6,6.21,1.79,8.59c1.2,2.38,3.04,4.19,5.52,5.44s5.66,1.88,9.53,1.88c2.39,0,4.45-.16,6.17-.48,1.72-.32,3.11-.73,4.18-1.24,1.07-.51,1.87-1.07,2.42-1.69s.88-1.22,1.01-1.82h22.97c-.26,2.43-1.3,4.78-3.13,7.05-1.83,2.27-4.34,4.31-7.54,6.13-3.2,1.81-7.07,3.25-11.62,4.31-4.55,1.06-9.69,1.58-15.44,1.58-7.88,0-14.73-1.24-20.56-3.72-5.83-2.48-10.34-5.92-13.54-10.33-3.2-4.4-4.8-9.47-4.8-15.22s1.63-10.96,4.9-15.35,7.82-7.8,13.67-10.25c5.85-2.45,12.63-3.67,20.33-3.67s14.84,1.24,20.62,3.72,10.25,5.98,13.38,10.49,4.7,9.81,4.7,15.9c0,.95-.02,1.81-.07,2.59-.04.77-.11,1.39-.2,1.85h-64.75Z"/><path class="cls-2" d="M730.68,80.99V24.88h23.24v56.11h-23.24ZM779.18,80.99v-29.27c0-2.11-.29-4.09-.88-5.94-.59-1.85-1.72-3.35-3.39-4.49-1.68-1.14-4.21-1.72-7.6-1.72-2.92,0-5.37.52-7.38,1.56-2,1.04-3.5,2.51-4.5,4.41s-1.5,4.14-1.5,6.71l-5.35-3.75c0-5,1.29-9.35,3.88-13.05s6.1-6.57,10.54-8.61c4.44-2.04,9.42-3.06,14.95-3.06s10.48.95,14.07,2.85c3.59,1.9,6.22,4.54,7.9,7.92,1.67,3.38,2.51,7.27,2.51,11.68v34.76h-23.24Z"/><path class="cls-2" d="M838.76,82.31c-7.96,0-14.87-1.27-20.72-3.8-5.85-2.54-10.37-6.02-13.54-10.46-3.18-4.44-4.76-9.54-4.76-15.32s1.59-10.88,4.76-15.22c3.18-4.33,7.69-7.7,13.54-10.12,5.85-2.41,12.76-3.62,20.72-3.62,5.92,0,11.14.69,15.67,2.06,4.52,1.37,8.3,3.2,11.32,5.47,3.02,2.27,5.32,4.75,6.89,7.45s2.35,5.36,2.35,8v.48h-23.04c0-.21-.01-.4-.03-.58-.02-.18-.08-.37-.16-.58-.35-1.2-1-2.37-1.96-3.51-.96-1.14-2.34-2.09-4.14-2.85-1.81-.76-4.17-1.14-7.08-1.14s-5.65.55-7.93,1.64-4.07,2.69-5.35,4.78c-1.28,2.1-1.93,4.68-1.93,7.74s.64,5.56,1.93,7.79c1.28,2.24,3.07,3.96,5.35,5.18s4.93,1.82,7.93,1.82,5.45-.38,7.34-1.14c1.89-.76,3.32-1.78,4.27-3.06s1.52-2.72,1.7-4.31h23.11c0,2.68-.77,5.38-2.32,8.11-1.54,2.73-3.83,5.24-6.85,7.53-3.02,2.29-6.8,4.14-11.32,5.55-4.53,1.41-9.77,2.11-15.73,2.11Z"/><path class="cls-2" d="M883.21,17.01c-3.48,0-6.54-.74-9.17-2.22-2.63-1.48-3.95-3.57-3.95-6.29s1.32-4.85,3.95-6.31c2.63-1.46,5.69-2.19,9.17-2.19s6.59.73,9.2,2.19c2.61,1.46,3.92,3.57,3.92,6.31s-1.31,4.85-3.92,6.31c-2.61,1.46-5.68,2.19-9.2,2.19ZM871.72,80.99V24.88h23.04v56.11h-23.04Z"/><path class="cls-2" d="M918.07,82.21c-5,0-9.46-.64-13.38-1.93s-7.01-3.16-9.27-5.63c-2.26-2.46-3.39-5.46-3.39-8.98,0-4.05,1.41-7.33,4.24-9.85,2.83-2.52,6.5-4.44,11.03-5.76,4.53-1.32,9.31-2.17,14.36-2.56,7.31-.56,12.3-1.07,14.98-1.51s4.01-1.21,4.01-2.3v-.11c0-1.69-1.1-3.06-3.3-4.12s-5.21-1.58-9.04-1.58c-4.05,0-7.1.59-9.17,1.77-2.07,1.18-3.1,2.97-3.1,5.36h-22.97c0-4.61,1.58-8.5,4.73-11.65,3.15-3.15,7.41-5.54,12.76-7.16,5.35-1.62,11.33-2.43,17.95-2.43,6.27,0,12.08.76,17.46,2.27,5.37,1.51,9.73,3.82,13.05,6.92,3.33,3.1,4.99,7.04,4.99,11.83v23.03c0,1.48.04,2.92.13,4.31.09,1.39.33,2.67.72,3.83.48,1.27,1.08,2.34,1.79,3.22.72.88,1.29,1.48,1.73,1.8h-22.78c-.35-.28-.86-.83-1.53-1.64-.67-.81-1.25-1.74-1.73-2.8-.57-1.41-.98-2.77-1.24-4.09-.26-1.32-.39-2.9-.39-4.73l4.96,2.75c-1.22,2.43-3.21,4.53-5.97,6.29-2.76,1.76-6.02,3.11-9.76,4.04-3.74.93-7.7,1.4-11.88,1.4ZM924.72,68.52c2.7,0,5.29-.44,7.77-1.32,2.48-.88,4.52-2.29,6.13-4.23,1.61-1.94,2.42-4.53,2.42-7.77v-3.86l5.87,4.23c-2.87.81-6.13,1.49-9.79,2.03s-7.22.96-10.7,1.24c-3.7.32-6.46.83-8.29,1.53-1.83.71-2.74,1.87-2.74,3.49s.79,2.71,2.38,3.49c1.59.78,3.91,1.16,6.95,1.16Z"/></svg>