<?xml version="1.0" encoding="UTF-8"?><svg id="Capa_1" xmlns="http://www.w3.org/2000/svg" viewBox="0 0 837.5 393.85"><defs><style>.cls-1{fill:#fff;}</style></defs><path class="cls-1" d="M39.04,147.08c10.74,6.68,23.22,10.01,37.45,10.01,10.82,0,20.33-1.85,28.55-5.54,8.21-3.69,15.07-8.52,20.56-14.49,4.91-5.33,8.74-11.19,11.5-17.54.81,6.37,2.73,11.99,5.76,16.83,4.15,6.63,9.9,11.7,17.26,15.2,7.36,3.5,15.76,5.26,25.19,5.26,8.05,0,15.55-1.21,22.51-3.62,6.95-2.42,12.97-5.87,18.06-10.37,1.8-1.59,3.41-3.3,4.86-5.11.34,1.54.73,3.08,1.18,4.61.81,2.75,1.81,5.16,2.99,7.24,1.18,2.08,2.05,3.46,2.62,4.12h37.21c-.81-.85-1.83-2.37-3.05-4.55-1.22-2.18-2.24-4.92-3.05-8.24-.73-2.93-1.2-6.18-1.4-9.73-.12-2.14-.2-4.34-.25-6.59.63,1.7,1.36,3.33,2.2,4.89,3.29,6.11,7.77,11.2,13.42,15.27,5.65,4.07,12.06,7.15,19.21,9.23,7.16,2.08,14.6,3.12,22.33,3.12s14.78-.92,21.9-2.77c7.12-1.85,13.58-4.69,19.4-8.52,5.81-3.83,10.43-8.83,13.85-14.98.62-1.11,1.16-2.27,1.66-3.46,1.01,3.24,2.35,6.25,4.07,9,4.15,6.63,9.9,11.7,17.26,15.2,7.36,3.5,15.76,5.26,25.19,5.26,8.05,0,15.55-1.21,22.51-3.62,6.95-2.42,12.97-5.87,18.06-10.37,1.8-1.59,3.41-3.3,4.86-5.11.34,1.54.73,3.08,1.18,4.61.81,2.75,1.81,5.16,2.99,7.24,1.18,2.08,2.05,3.46,2.62,4.12h37.21c-.81-.85-1.83-2.37-3.05-4.55-1.22-2.18-2.24-4.92-3.05-8.24-.73-2.93-1.2-6.18-1.4-9.73-.2-3.55-.3-7.27-.3-11.15V54.83c0-12.4-2.95-22.63-8.84-30.68-5.9-8.05-13.68-14.08-23.36-18.11-9.68-4.02-20.21-6.04-31.6-6.04-12.2,0-23.14,2.16-32.82,6.46-9.68,4.31-17.34,10.63-23,18.96-3.57,5.26-6.01,11.28-7.32,18.05-.85-7.86-3.47-14.75-7.87-20.67-5.45-7.34-12.57-12.97-21.35-16.9-8.78-3.93-18.26-5.89-28.43-5.89s-20.42,1.8-29.28,5.4c-8.87,3.6-15.96,8.9-21.29,15.91-4.73,6.22-7.36,13.72-7.89,22.48-1.27-7.57-3.93-14.12-7.97-19.64-5.9-8.05-13.68-14.08-23.36-18.11-9.68-4.02-20.21-6.04-31.6-6.04-12.2,0-23.14,2.16-32.82,6.46-9.68,4.31-17.34,10.63-23,18.96-3.77,5.55-6.27,11.95-7.53,19.19-.52-1.71-1.12-3.41-1.8-5.12-2.85-7.1-7.04-13.64-12.57-19.6-5.53-5.97-12.4-10.77-20.62-14.42-8.22-3.64-17.65-5.47-28.3-5.47-14.23,0-26.72,3.22-37.45,9.66-10.74,6.44-19.05,15.46-24.95,27.06-5.9,11.6-8.84,25.31-8.84,41.12s2.95,29.4,8.84,41.33c5.9,11.93,14.21,21.23,24.95,27.91ZM466.88,108.23c-3.25,5.4-7.46,9.35-12.63,11.86-5.17,2.51-10.72,3.76-16.65,3.76-6.91,0-12.12-1.3-15.62-3.91-3.5-2.6-5.25-6.51-5.25-11.72,0-5.49,2.05-9.4,6.16-11.72,4.11-2.32,10.31-3.95,18.6-4.9,6.99-.85,14.01-2.01,21.04-3.48,3.25-.68,6.32-1.45,9.21-2.3v1.23c0,8.71-1.63,15.77-4.88,21.16ZM306.45,38.42c2.28-1.85,5.06-3.17,8.36-3.98,3.29-.8,6.48-1.21,9.58-1.21,3.42,0,6.71.59,9.88,1.78,3.17,1.19,5.79,2.96,7.87,5.33,2.07,2.37,3.11,5.45,3.11,9.23v1.71h35.91c-.1,1.58-.16,3.18-.16,4.83h37.21c0-7.48,2.3-13.04,6.89-16.69,4.59-3.64,11.24-5.47,19.95-5.47,8.21,0,14.62,1.61,19.21,4.83,4.59,3.22,6.89,7.62,6.89,13.21v.28c0,3.32-2.7,5.63-8.11,6.96-5.41,1.33-15.23,2.79-29.46,4.4-9.76,1.14-18.81,3.48-27.14,7.03-8.34,3.55-15.03,8.69-20.07,15.41-1.72,2.29-3.14,4.82-4.27,7.57-.71-2.02-1.58-3.92-2.62-5.65-3.29-5.44-7.61-9.85-12.93-13.21-5.33-3.36-11.02-5.97-17.08-7.81-6.06-1.85-11.81-3.29-17.26-4.33-5.78-1.14-10.86-2.34-15.25-3.62-4.39-1.28-7.81-2.93-10.25-4.97-2.44-2.04-3.66-4.66-3.66-7.88s1.14-5.9,3.42-7.74ZM282.91,79.9c5.12,3.46,10.74,6.23,16.84,8.31,6.1,2.08,12.12,3.69,18.06,4.83,10.49,2.08,18.12,4.17,22.87,6.25,4.76,2.08,7.14,5.63,7.14,10.65,0,3.12-1.12,5.71-3.35,7.74-2.24,2.04-5.08,3.5-8.54,4.4-3.46.9-7.06,1.35-10.8,1.35-7.16,0-12.83-1.28-17.02-3.83-4.19-2.56-6.28-6.58-6.28-12.07v-1.99h-34.89v-48.63c.77,3.6,1.97,6.87,3.66,9.78,3.09,5.35,7.2,9.75,12.32,13.21ZM224.72,108.23c-3.25,5.4-7.46,9.35-12.63,11.86-5.17,2.51-10.72,3.76-16.65,3.76-6.91,0-12.12-1.3-15.62-3.91-3.5-2.6-5.25-6.51-5.25-11.72,0-5.49,2.05-9.4,6.16-11.72,4.11-2.32,10.31-3.95,18.6-4.9,6.99-.85,14.01-2.01,21.04-3.48,3.25-.68,6.32-1.45,9.21-2.3v1.23c0,8.71-1.63,15.77-4.88,21.16ZM47.82,54.47c2.85-6.3,6.73-11.05,11.65-14.27,4.92-3.22,10.51-4.83,16.77-4.83,5.86,0,10.75,1.11,14.7,3.34,3.94,2.23,7.01,5.09,9.21,8.59,2.2,3.5,3.62,7.24,4.27,11.22.16.57.26,1.11.31,1.63.04.52.06,1.07.06,1.63h37.45v-1.14c0-1.51-.08-3.03-.21-4.54h34.01c0-7.48,2.3-13.04,6.89-16.69,4.59-3.64,11.24-5.47,19.95-5.47,8.21,0,14.62,1.61,19.21,4.83,4.59,3.22,6.89,7.62,6.89,13.21v.28c0,3.32-2.71,5.63-8.11,6.96-5.41,1.33-15.23,2.79-29.46,4.4-9.76,1.14-18.81,3.48-27.14,7.03-8.34,3.55-15.03,8.69-20.07,15.41-2.17,2.9-3.87,6.17-5.11,9.8h-34.29c-.41,4.74-1.63,9.07-3.66,13-2.03,3.93-5.08,7.06-9.15,9.38-4.07,2.32-9.31,3.48-15.74,3.48s-11.85-1.75-16.77-5.25c-4.92-3.5-8.8-8.54-11.65-15.13-2.85-6.58-4.27-14.42-4.27-23.51s1.42-17.07,4.27-23.37Z"/><path class="cls-1" d="M834.45,385.9c-1.22-2.18-2.24-4.92-3.05-8.24-.73-2.93-1.2-6.18-1.4-9.73-.2-3.55-.3-7.27-.3-11.15v-65.2c0-12.4-2.95-22.63-8.84-30.68-5.9-8.05-13.68-14.08-23.36-18.11-9.68-4.02-20.21-6.04-31.6-6.04-12.2,0-23.14,2.16-32.82,6.46-9.68,4.31-17.34,10.63-23,18.96-5.65,8.33-8.48,18.56-8.48,30.68h37.21c0-7.48,2.3-13.04,6.89-16.69,4.59-3.64,11.24-5.47,19.95-5.47,8.21,0,14.62,1.61,19.21,4.83,4.59,3.22,6.89,7.62,6.89,13.21v.28c0,3.32-2.7,5.63-8.11,6.96-5.41,1.33-15.23,2.79-29.46,4.4-9.76,1.14-18.81,3.48-27.14,7.03-8.34,3.55-15.03,8.69-20.07,15.41-4.14,5.51-6.57,12.37-7.32,20.55v-174.95h-37.94v88.53c-3.48-4.29-7.4-8-11.77-11.12-8.5-6.06-17.87-9.09-28.12-9.09s-20.31,3.01-29.46,9.02c-9.15,6.01-16.55,14.8-22.2,26.35-2.5,5.11-4.45,10.72-5.84,16.82-.39-11.22-3.32-20.57-8.79-28.04-5.9-8.05-13.68-14.08-23.36-18.11-9.68-4.02-20.21-6.04-31.6-6.04-12.2,0-23.14,2.16-32.82,6.46-9.68,4.31-17.34,10.63-23,18.96-5.65,8.33-8.48,18.56-8.48,30.68h37.21c0-7.48,2.3-13.04,6.89-16.69,4.59-3.64,11.24-5.47,19.95-5.47,8.21,0,14.62,1.61,19.21,4.83,4.59,3.22,6.89,7.62,6.89,13.21v.28c0,3.32-2.7,5.63-8.11,6.96-5.41,1.33-15.23,2.79-29.46,4.4-9.76,1.14-18.81,3.48-27.14,7.03-8.34,3.55-15.03,8.69-20.07,15.41-3.35,4.47-5.59,9.83-6.71,16.06v-44.47c0-10.7-1.32-20.38-3.96-29.05-2.64-8.66-7.04-15.6-13.18-20.81-6.14-5.21-14.5-7.81-25.07-7.81s-18.89,2.82-26.17,8.45c-6.8,5.26-12.13,12.35-16.02,21.21-.03-.11-.06-.22-.09-.33-2.48-8.85-6.75-15.96-12.81-21.31-6.06-5.35-14.5-8.03-25.31-8.03-10.09,0-18.81,2.82-26.17,8.45-4.99,3.82-9.19,8.65-12.63,14.42v-20.04h-37.82v61.75c-1.27-9.85-3.98-18.86-8.11-27.02-5.98-11.79-14.29-20.97-24.95-27.55-10.66-6.58-22.98-9.87-36.96-9.87s-26.31,3.29-36.96,9.87c-9.65,5.96-17.37,14.06-23.18,24.29v-31.46h-37.7v-49.71H29.89v19.03c0,7.29-.2,13.02-.61,17.19-.41,4.17-1.32,7.22-2.74,9.16-1.42,1.94-3.58,3.15-6.47,3.62-2.89.47-6.77.71-11.65.71H0v34.09h29.89v76.42c0,9.47,1.38,17.09,4.15,22.87,2.76,5.78,6.4,10.16,10.92,13.14,4.51,2.98,9.39,4.97,14.64,5.97,5.25.99,10.35,1.49,15.31,1.49,4.15,0,7.77-.36,10.86-1.07,3.09-.71,5.49-1.49,7.2-2.34v-33.09c-1.22.57-3.03,1.14-5.43,1.71-2.4.57-4.94.85-7.62.85-5.37,0-8.72-2.04-10.06-6.11-1.34-4.07-2.01-9.37-2.01-15.91v-63.92h36.27c-.11.21-.23.42-.34.64-5.98,11.79-8.97,25.35-8.97,40.69s2.99,29.05,8.97,40.84,14.29,21.05,24.95,27.77c10.65,6.72,22.98,10.08,36.96,10.08s26.31-3.36,36.96-10.08c10.65-6.72,18.97-15.98,24.95-27.77,4.14-8.16,6.84-17.18,8.11-27.08v61.67h37.82v-77.98c0-5.02.45-9.82,1.34-14.42.89-4.59,2.3-8.66,4.21-12.21,1.91-3.55,4.37-6.34,7.38-8.38,3.01-2.04,6.59-3.05,10.74-3.05,4.47,0,8.01.97,10.61,2.91,2.6,1.94,4.53,4.54,5.79,7.81,1.26,3.27,2.07,6.8,2.44,10.58.37,3.79.55,7.62.55,11.5v83.23h37.58v-78.83c0-4.83.43-9.47,1.28-13.92.85-4.45,2.21-8.43,4.09-11.93,1.87-3.5,4.29-6.27,7.26-8.31,2.97-2.04,6.53-3.05,10.67-3.05,4.47,0,8.01.9,10.61,2.7,2.6,1.8,4.55,4.26,5.86,7.39,1.3,3.12,2.15,6.6,2.56,10.44.41,3.83.61,7.84.61,12v83.52h37.82v-31.56c.97,5.31,2.75,10.05,5.37,14.23,4.15,6.63,9.9,11.7,17.26,15.2,7.36,3.5,15.76,5.25,25.19,5.25,8.05,0,15.55-1.21,22.51-3.62,6.95-2.41,12.97-5.87,18.06-10.37,1.8-1.59,3.41-3.3,4.86-5.11.34,1.54.73,3.08,1.18,4.61.81,2.75,1.81,5.16,2.99,7.24,1.18,2.08,2.05,3.46,2.62,4.12h37.21c-.81-.85-1.83-2.37-3.05-4.54-1.22-2.18-2.24-4.92-3.05-8.24-.73-2.93-1.2-6.18-1.4-9.73-.2-3.55-.3-7.27-.3-11.15v-15.57c1.36,6.13,3.22,11.74,5.61,16.85,5.53,11.84,12.85,20.76,21.96,26.77,9.11,6.01,19.07,9.02,29.89,9.02s19.99-3.25,28.49-9.73c4.24-3.23,8.04-7.02,11.41-11.36v17.68h37.94v-36.26c.64,7.24,2.61,13.56,5.97,18.93,4.15,6.63,9.9,11.7,17.26,15.2,7.36,3.5,15.76,5.25,25.19,5.25,8.05,0,15.55-1.21,22.51-3.62,6.95-2.41,12.97-5.87,18.06-10.37,1.8-1.59,3.41-3.3,4.86-5.11.34,1.54.73,3.08,1.18,4.61.81,2.75,1.81,5.16,2.99,7.24,1.18,2.08,2.05,3.46,2.62,4.12h37.21c-.81-.85-1.83-2.37-3.05-4.54ZM194.22,338.1c-2.68,6.58-6.47,11.67-11.35,15.27-4.88,3.6-10.61,5.4-17.2,5.4s-12.22-1.8-17.14-5.4c-4.92-3.6-8.72-8.69-11.41-15.27-2.68-6.58-4.03-14.27-4.03-23.08s1.34-16.45,4.03-22.94c2.68-6.48,6.48-11.48,11.41-14.98,4.92-3.5,10.63-5.26,17.14-5.26s12.32,1.75,17.2,5.26c4.88,3.5,8.66,8.5,11.35,14.98,2.68,6.49,4.03,14.13,4.03,22.94s-1.34,16.5-4.03,23.08ZM522.15,344.99c-3.25,5.4-7.46,9.35-12.63,11.86-5.17,2.51-10.72,3.76-16.65,3.76-6.91,0-12.12-1.3-15.62-3.91-3.5-2.6-5.25-6.51-5.25-11.72,0-5.49,2.05-9.4,6.16-11.72,4.11-2.32,10.31-3.95,18.6-4.9,6.99-.85,14.01-2.01,21.04-3.48,3.25-.68,6.32-1.45,9.21-2.3v1.23c0,8.71-1.63,15.77-4.88,21.16ZM657.44,339.03c-2.85,5.3-6.59,9.4-11.22,12.29-4.64,2.89-9.56,4.33-14.76,4.33-8.3,0-15.51-3.34-21.65-10.01-6.14-6.68-9.21-17.12-9.21-31.32s3.05-24.55,9.15-31.04c6.1-6.49,13.34-9.73,21.71-9.73,5.04,0,9.88,1.4,14.52,4.19,4.64,2.79,8.42,6.75,11.35,11.86s4.39,11.22,4.39,18.32v12.36c0,7.2-1.42,13.45-4.27,18.75ZM787.48,344.99c-3.25,5.4-7.46,9.35-12.63,11.86-5.17,2.51-10.72,3.76-16.65,3.76-6.91,0-12.12-1.3-15.62-3.91-3.5-2.6-5.25-6.51-5.25-11.72,0-5.49,2.05-9.4,6.16-11.72,4.11-2.32,10.31-3.95,18.6-4.9,6.99-.85,14.01-2.01,21.04-3.48,3.25-.68,6.32-1.45,9.21-2.3v1.23c0,8.71-1.63,15.77-4.88,21.16Z"/></svg>