<?xml version="1.0" encoding="UTF-8"?><svg id="Capa_1" xmlns="http://www.w3.org/2000/svg" viewBox="0 0 747.41 125.9"><defs><style>.cls-1{fill:#fff;}</style></defs><rect class="cls-1" y="104.06" width="63.76" height="15.74"/><path class="cls-1" d="M125.49,33.92c-6.51,0-12.48,3.66-16.01,7.33-2.17-4.07-6.65-7.33-12.35-7.33-6.65,0-12.21,4.21-14.79,7.05l-2.04-4.61h-6.51v62.41h15.19v-47.08c1.22-1.36,4.21-2.71,6.51-2.71,2.58,0,5.7,1.63,5.7,5.97v43.82h13.57v-47.08c1.09-1.36,3.8-2.71,5.97-2.71,2.71,0,6.11,1.76,6.11,5.97v43.82h15.19v-45.45c0-11.12-5.02-19.4-16.55-19.4Z"/><path class="cls-1" d="M182.61,33.92c-9.9,0-18.72,2.44-23.61,4.48v13.43h2.44c4.75-2.17,12.07-4.07,18.32-4.07,10.99,0,15.06,5.43,15.06,11.8v1.9h-12.89c-16.14,0-29.03,5.7-29.03,19.94,0,11.53,8.55,19.4,23.88,19.4,8.95,0,17.91-3.93,22.52-8.28l3.12,6.38h9.5v-34.59c0-18.32-7.05-30.39-29.3-30.39ZM194.82,81.94c-4.21,2.85-10.17,5.16-15.06,5.16-6.38,0-10.31-2.71-10.31-7.46s4.21-7.33,11.4-7.33h13.97v9.63Z"/><path class="cls-1" d="M265.37,33.92c-9.09,0-18.59,4.48-23.33,8l-2.98-5.56h-8.41v62.41h17.64v-45.04c3.8-1.9,9.09-4.07,14.24-4.07,6.78,0,9.09,3.8,9.09,11.4v37.72h17.64v-37.04c0-15.47-5.56-27.81-23.88-27.81Z"/><path class="cls-1" d="M359.39,81.4c-3.66,2.58-8,4.07-11.53,4.07-4.48,0-7.33-2.44-7.33-7.19v-41.92h-35.41v14.65h17.91v26.32c0,15.74,8.55,23.74,22.66,23.74,7.87,0,16.42-2.71,21.98-6.92l-6.24-12.75h-2.04Z"/><path class="cls-1" d="M331.72,24.42c6.78,0,11.4-4.21,11.4-10.85s-4.88-10.72-11.4-10.72-11.4,4.21-11.4,10.72,4.75,10.85,11.4,10.85Z"/><path class="cls-1" d="M406.47,24.15c0-5.83,2.85-8.95,9.09-8.95,3.26,0,8.95,1.49,13.84,3.12h2.58V3.12c-5.16-1.76-11.94-3.12-17.09-3.12-17.37,0-26.05,9.9-26.05,24.55v11.12l-10.99,3.66v11.67h10.99v47.75h17.64v-47.75h15.47v47.75h17.5v-62.41h-32.97v-12.21Z"/><path class="cls-1" d="M488.69,33.92c-17.64,0-32.56,12.07-32.56,33.78s13.7,33.1,34.19,33.1c10.58,0,19.81-3.39,26.46-7.73l-6.24-12.62h-2.17c-5.29,3.66-12.62,6.11-18.86,6.11-9.63,0-15.47-5.83-15.74-14.25h44.77v-4.48c0-20.21-10.99-33.92-29.85-33.92ZM473.63,61.46c.68-7.05,5.56-13.7,14.38-13.7s14.25,6.78,14.25,13.7h-28.62Z"/><path class="cls-1" d="M565.75,60.1c-6.65-1.49-12.21-2.71-12.21-6.78,0-2.85,2.44-5.29,8.95-5.29s18.04,2.44,25.1,5.83h2.58v-14.79c-5.83-2.85-18.04-5.16-27.27-5.16-17.09,0-26.59,8-26.59,20.08,0,12.75,10.45,16.55,25.1,19.81,9.09,2.04,14.38,3.53,14.38,7.6s-5.02,6.1-10.85,6.1c-7.6,0-17.91-3.26-23.88-6.1h-2.44l-5.43,12.89c7.19,4.34,20.62,6.78,30.93,6.78,18.86,0,29.03-8,29.03-20.08,0-14.65-14.52-18.04-27.4-20.89Z"/><path class="cls-1" d="M661.12,81.4c-4.75,2.71-9.5,4.07-13.16,4.07-4.88,0-8.82-2.31-8.82-8v-26.46h28.63v-14.65h-28.63v-14.25h-10.45l-22.38,20.21v5.83h15.33v31.07c0,12.89,8.41,21.84,23.74,21.84,6.92,0,16.96-1.9,24.01-6.92l-6.24-12.75h-2.03Z"/><path class="cls-1" d="M721.77,41.65c-10.99,0-18.99,10.31-18.99,28.76s8,27.95,19.67,27.95c7.6,0,13.43-4.07,15.87-7.05l1.9,4.88h7.19v-47.21c0-19.13-6.92-37.58-30.52-37.58-25.64,0-34.87,21.84-34.87,57.12,0,40.7,12.07,57.39,34.73,57.39,8.95,0,19.26-2.71,27.27-7.87l-4.48-10.04h-1.76c-5.43,3.93-13.16,7.05-20.76,7.05-14.92,0-23.47-11.53-23.47-47.62,0-26.73,4.75-45.45,22.66-45.45,13.29,0,18.18,10.45,18.18,21.84v2.99c-2.85-2.44-7.05-5.16-12.62-5.16ZM734.25,81.67c-2.99,2.85-6.38,4.34-9.5,4.34-6.51,0-9.36-6.24-9.36-16.14s2.71-16.01,9.09-16.01c3.66,0,6.92,2.03,9.77,4.48v23.33Z"/></svg>