<?xml version="1.0" encoding="UTF-8"?><svg id="Capa_1" xmlns="http://www.w3.org/2000/svg" viewBox="0 0 788.87 161.08"><defs><style>.cls-1{fill:#fff;}</style></defs><path class="cls-1" d="M0,158.59V48.22h27.76v38.04l-5.71-4.16c.65-5.2,1.84-9.98,3.57-14.34,1.73-4.37,3.96-8.16,6.69-11.38,2.74-3.22,5.99-5.73,9.77-7.53,3.78-1.8,8.11-2.7,12.99-2.7,3.81,0,6.8.33,8.97.99,2.17.66,3.53,1.16,4.06,1.51l-4.55,28.89c-.54-.35-1.73-.9-3.57-1.66-1.85-.76-4.23-1.14-7.14-1.14-4.76,0-8.75.94-11.96,2.81-3.21,1.87-5.79,4.35-7.72,7.43-1.93,3.08-3.32,6.5-4.15,10.24-.83,3.74-1.25,7.52-1.25,11.33v52.07H0Z"/><path class="cls-1" d="M76.85,30.24c-4.28,0-8.02-1.32-11.2-3.95-3.18-2.63-4.78-6.34-4.78-11.12s1.59-8.59,4.78-11.22c3.18-2.63,6.92-3.95,11.2-3.95s8.11,1.32,11.29,3.95c3.18,2.63,4.78,6.38,4.78,11.22s-1.59,8.57-4.78,11.17c-3.18,2.6-6.95,3.9-11.29,3.9ZM63.19,158.59V48.22h27.4v110.37h-27.4Z"/><path class="cls-1" d="M117.37,133.33h51.41v25.25h-81.05v-23.9l50.16-62.46.62,1.14h-49v-25.15h78.19v23.9l-49.72,62.25-.62-1.04Z"/><path class="cls-1" d="M212.17,160.98c-10.24,0-19.25-2.46-27.04-7.38-7.8-4.92-13.88-11.69-18.25-20.32-4.37-8.63-6.56-18.58-6.56-29.88s2.19-21.15,6.56-29.77,10.46-15.34,18.25-20.16c7.79-4.81,16.81-7.22,27.04-7.22s19.25,2.41,27.05,7.22c7.79,4.82,13.88,11.54,18.25,20.16,4.37,8.63,6.56,18.55,6.56,29.77s-2.19,21.25-6.56,29.88c-4.37,8.62-10.46,15.4-18.25,20.32-7.8,4.92-16.81,7.38-27.05,7.38ZM212.17,135.41c4.82,0,9.02-1.32,12.59-3.95,3.57-2.63,6.34-6.36,8.3-11.17,1.96-4.81,2.95-10.44,2.95-16.89s-.98-12.04-2.95-16.78c-1.96-4.74-4.73-8.4-8.3-10.96-3.57-2.56-7.77-3.84-12.59-3.84s-8.94,1.28-12.54,3.84c-3.6,2.56-6.38,6.22-8.35,10.96-1.96,4.75-2.95,10.34-2.95,16.78s.98,12.07,2.95,16.89c1.96,4.82,4.75,8.54,8.35,11.17,3.6,2.63,7.78,3.95,12.54,3.95Z"/><path class="cls-1" d="M263.4,158.59V48.22h27.67v110.37h-27.67ZM322.58,158.59v-60.9c0-2.84-.13-5.65-.4-8.42-.27-2.77-.86-5.35-1.79-7.74-.92-2.39-2.34-4.29-4.24-5.72-1.91-1.42-4.49-2.13-7.77-2.13-3.04,0-5.65.75-7.85,2.23-2.2,1.49-4,3.53-5.4,6.13-1.4,2.6-2.43,5.58-3.08,8.94-.66,3.36-.98,6.88-.98,10.55l-7.59-7.27c0-9.35,1.46-17.65,4.37-24.89,2.92-7.24,7.07-12.92,12.45-17.04,5.38-4.12,11.77-6.18,19.15-6.18,7.91,0,14.09,1.96,18.52,5.87,4.43,3.92,7.56,9.11,9.37,15.59,1.81,6.48,2.72,13.63,2.72,21.46v69.52h-27.49ZM381.49,158.59v-61.11c0-3.05-.15-5.98-.45-8.78-.3-2.81-.92-5.35-1.87-7.64-.95-2.29-2.38-4.09-4.29-5.4-1.9-1.32-4.49-1.97-7.76-1.97-3.04,0-5.64.75-7.81,2.23-2.17,1.49-3.94,3.52-5.31,6.08-1.37,2.56-2.37,5.47-2.99,8.73-.62,3.26-.94,6.65-.94,10.18l-7.59-7.17c0-9.21,1.44-17.39,4.33-24.53,2.88-7.13,6.99-12.76,12.32-16.89,5.33-4.12,11.71-6.18,19.15-6.18s13.85,1.91,18.34,5.72c4.49,3.81,7.71,8.88,9.64,15.22,1.93,6.34,2.9,13.42,2.9,21.25v70.25h-27.67Z"/><path class="cls-1" d="M444.15,160.87c-6.9,0-13.05-1.28-18.43-3.84-5.39-2.56-9.6-6.27-12.63-11.12-3.03-4.85-4.55-10.74-4.55-17.67,0-7.83,1.84-14.2,5.53-19.12,3.69-4.92,8.58-8.68,14.68-11.28,6.1-2.6,12.72-4.31,19.86-5.14,10.41-1.18,17.6-2.25,21.56-3.22,3.96-.97,5.94-2.67,5.94-5.09v-.21c0-4.09-1.68-7.31-5.04-9.66-3.36-2.35-8.05-3.53-14.06-3.53-6.37,0-11.23,1.33-14.59,4-3.36,2.67-5.04,6.74-5.04,12.21h-27.22c0-8.87,2.07-16.35,6.2-22.45,4.13-6.1,9.74-10.72,16.83-13.87,7.08-3.15,15.08-4.73,24.01-4.73,8.33,0,16.04,1.47,23.12,4.42,7.08,2.95,12.78,7.36,17.09,13.25,4.31,5.89,6.47,13.37,6.47,22.45v47.7c0,2.84.07,5.56.22,8.16.15,2.6.49,4.97,1.03,7.12.59,2.43,1.34,4.43,2.23,6.03.89,1.59,1.64,2.7,2.23,3.33h-27.22c-.42-.48-1.06-1.49-1.92-3.01-.86-1.52-1.59-3.29-2.19-5.3-.71-2.42-1.24-4.87-1.56-7.33-.33-2.46-.49-5.35-.49-8.68l5.71,4.57c-1.67,4.57-4.36,8.51-8.08,11.79-3.72,3.29-8.12,5.82-13.21,7.59s-10.58,2.65-16.47,2.65ZM451.56,136.76c4.34,0,8.4-.92,12.18-2.75,3.78-1.83,6.86-4.73,9.24-8.68,2.38-3.95,3.57-9.11,3.57-15.48v-11.12l6.87,7.79c-3.93,1.66-8.47,3.03-13.61,4.11-5.15,1.07-10.28,1.92-15.4,2.55-6.07.69-10.61,1.89-13.61,3.58-3.01,1.7-4.51,4.56-4.51,8.57,0,3.81,1.28,6.67,3.84,8.57,2.56,1.91,6.37,2.86,11.43,2.86Z"/><path class="cls-1" d="M574.83,161.08c-8.39,0-15.52-2.11-21.38-6.34-5.86-4.23-10.62-9.99-14.28-17.3-3.66-7.31-6.32-15.71-7.99-25.2-1.67-9.49-2.5-19.47-2.5-29.93s.83-20.46,2.5-29.98c1.67-9.53,4.33-18,7.99-25.41,3.66-7.41,8.42-13.25,14.28-17.51,5.86-4.26,12.99-6.39,21.38-6.39s15.52,2.13,21.38,6.39,10.62,10.1,14.28,17.51c3.66,7.41,6.32,15.88,7.99,25.41,1.67,9.53,2.5,19.52,2.5,29.98s-.83,20.44-2.5,29.93c-1.67,9.49-4.33,17.89-7.99,25.2-3.66,7.31-8.42,13.08-14.28,17.3-5.86,4.22-12.99,6.34-21.38,6.34ZM574.83,136.04c3.99,0,7.33-1.78,10.04-5.35,2.71-3.57,4.75-9.3,6.11-17.2,1.37-7.9,2.05-18.29,2.05-31.18s-.69-23.37-2.05-31.23c-1.37-7.86-3.41-13.6-6.11-17.2-2.71-3.6-6.06-5.4-10.04-5.4s-7.26,1.8-10,5.4c-2.74,3.6-4.79,9.34-6.16,17.2-1.37,7.86-2.05,18.27-2.05,31.23s.68,23.37,2.05,31.23c1.37,7.86,3.42,13.58,6.16,17.15,2.74,3.57,6.07,5.35,10,5.35Z"/><path class="cls-1" d="M663.46,161.08c-8.39,0-15.52-2.11-21.38-6.34-5.86-4.23-10.62-9.99-14.28-17.3-3.66-7.31-6.32-15.71-7.99-25.2-1.67-9.49-2.5-19.47-2.5-29.93s.83-20.46,2.5-29.98c1.67-9.53,4.33-18,7.99-25.41,3.66-7.41,8.42-13.25,14.28-17.51,5.86-4.26,12.99-6.39,21.38-6.39s15.52,2.13,21.38,6.39,10.62,10.1,14.28,17.51c3.66,7.41,6.32,15.88,7.99,25.41,1.67,9.53,2.5,19.52,2.5,29.98s-.83,20.44-2.5,29.93c-1.67,9.49-4.33,17.89-7.99,25.2-3.66,7.31-8.42,13.08-14.28,17.3-5.86,4.22-12.99,6.34-21.38,6.34ZM663.46,136.04c3.99,0,7.33-1.78,10.04-5.35,2.71-3.57,4.75-9.3,6.11-17.2,1.37-7.9,2.05-18.29,2.05-31.18s-.69-23.37-2.05-31.23c-1.37-7.86-3.41-13.6-6.11-17.2-2.71-3.6-6.06-5.4-10.04-5.4s-7.26,1.8-10,5.4c-2.74,3.6-4.79,9.34-6.16,17.2-1.37,7.86-2.05,18.27-2.05,31.23s.68,23.37,2.05,31.23c1.37,7.86,3.42,13.58,6.16,17.15,2.74,3.57,6.07,5.35,10,5.35Z"/><path class="cls-1" d="M768.7,5.09v153.49h-27.49V35.23c-.71.69-2.35,1.58-4.91,2.65-2.56,1.07-5.59,2.1-9.1,3.07-3.51.97-7.11,1.63-10.8,1.97v-25.36c3.69-.55,7.32-1.51,10.89-2.86,3.57-1.35,6.65-2.89,9.24-4.62,2.59-1.73,4.33-3.39,5.22-4.99h26.96ZM719.34,135.2h69.53v23.38h-69.53v-23.38Z"/></svg>